<mxfile host="Electron" agent="Mozilla/5.0 (Windows NT 10.0; Win64; x64) AppleWebKit/537.36 (KHTML, like Gecko) draw.io/28.0.6 Chrome/138.0.7204.100 Electron/37.2.3 Safari/537.36" version="28.0.6">
  <diagram name="Página-1" id="RC3kYaYwhh5fmN9tDpPD">
    <mxGraphModel dx="690" dy="521" grid="1" gridSize="10" guides="1" tooltips="1" connect="1" arrows="1" fold="1" page="1" pageScale="1" pageWidth="827" pageHeight="1169" math="0" shadow="0">
      <root>
        <mxCell id="0" />
        <mxCell id="1" parent="0" />
        <mxCell id="VuJn-vsjXSe5jHGsOPbM-1" value="" style="edgeStyle=orthogonalEdgeStyle;rounded=0;orthogonalLoop=1;jettySize=auto;html=1;" edge="1" parent="1" source="VuJn-vsjXSe5jHGsOPbM-2" target="VuJn-vsjXSe5jHGsOPbM-6">
          <mxGeometry relative="1" as="geometry" />
        </mxCell>
        <mxCell id="VuJn-vsjXSe5jHGsOPbM-2" value="" style="rounded=0;whiteSpace=wrap;html=1;" vertex="1" parent="1">
          <mxGeometry x="270" y="110" width="120" height="60" as="geometry" />
        </mxCell>
        <mxCell id="VuJn-vsjXSe5jHGsOPbM-3" style="edgeStyle=orthogonalEdgeStyle;rounded=0;orthogonalLoop=1;jettySize=auto;html=1;entryX=0;entryY=0.5;entryDx=0;entryDy=0;" edge="1" parent="1" source="VuJn-vsjXSe5jHGsOPbM-4" target="VuJn-vsjXSe5jHGsOPbM-2">
          <mxGeometry relative="1" as="geometry" />
        </mxCell>
        <mxCell id="VuJn-vsjXSe5jHGsOPbM-4" value="" style="ellipse;whiteSpace=wrap;html=1;aspect=fixed;fillColor=#60a917;fontColor=#ffffff;strokeColor=#2D7600;" vertex="1" parent="1">
          <mxGeometry x="210" y="125" width="30" height="30" as="geometry" />
        </mxCell>
        <mxCell id="VuJn-vsjXSe5jHGsOPbM-5" style="edgeStyle=orthogonalEdgeStyle;rounded=0;orthogonalLoop=1;jettySize=auto;html=1;" edge="1" parent="1" source="VuJn-vsjXSe5jHGsOPbM-6" target="VuJn-vsjXSe5jHGsOPbM-8">
          <mxGeometry relative="1" as="geometry" />
        </mxCell>
        <mxCell id="VuJn-vsjXSe5jHGsOPbM-6" value="" style="rounded=0;whiteSpace=wrap;html=1;" vertex="1" parent="1">
          <mxGeometry x="430" y="110" width="120" height="60" as="geometry" />
        </mxCell>
        <mxCell id="VuJn-vsjXSe5jHGsOPbM-7" value="" style="edgeStyle=orthogonalEdgeStyle;rounded=0;orthogonalLoop=1;jettySize=auto;html=1;" edge="1" parent="1" source="VuJn-vsjXSe5jHGsOPbM-8" target="VuJn-vsjXSe5jHGsOPbM-10">
          <mxGeometry relative="1" as="geometry" />
        </mxCell>
        <mxCell id="VuJn-vsjXSe5jHGsOPbM-8" value="" style="rounded=0;whiteSpace=wrap;html=1;" vertex="1" parent="1">
          <mxGeometry x="430" y="190" width="120" height="60" as="geometry" />
        </mxCell>
        <mxCell id="VuJn-vsjXSe5jHGsOPbM-9" value="" style="edgeStyle=orthogonalEdgeStyle;rounded=0;orthogonalLoop=1;jettySize=auto;html=1;" edge="1" parent="1" source="VuJn-vsjXSe5jHGsOPbM-10" target="VuJn-vsjXSe5jHGsOPbM-11">
          <mxGeometry relative="1" as="geometry" />
        </mxCell>
        <mxCell id="VuJn-vsjXSe5jHGsOPbM-10" value="" style="rounded=0;whiteSpace=wrap;html=1;" vertex="1" parent="1">
          <mxGeometry x="580" y="190" width="120" height="60" as="geometry" />
        </mxCell>
        <mxCell id="VuJn-vsjXSe5jHGsOPbM-11" value="" style="ellipse;whiteSpace=wrap;html=1;aspect=fixed;fillColor=light-dark(#A20025,#660000);fontColor=#ffffff;strokeColor=light-dark(#6F0000,#990000);" vertex="1" parent="1">
          <mxGeometry x="740" y="205" width="30" height="30" as="geometry" />
        </mxCell>
        <UserObject label="receber nota 1" placeholders="1" name="Variable" id="VuJn-vsjXSe5jHGsOPbM-12">
          <mxCell style="text;html=1;strokeColor=none;fillColor=none;align=center;verticalAlign=middle;whiteSpace=wrap;overflow=hidden;" vertex="1" parent="1">
            <mxGeometry x="280" y="130" width="100" height="20" as="geometry" />
          </mxCell>
        </UserObject>
        <UserObject label="receber nota 2" placeholders="1" name="Variable" id="VuJn-vsjXSe5jHGsOPbM-13">
          <mxCell style="text;html=1;strokeColor=none;fillColor=none;align=center;verticalAlign=middle;whiteSpace=wrap;overflow=hidden;" vertex="1" parent="1">
            <mxGeometry x="440" y="130" width="100" height="20" as="geometry" />
          </mxCell>
        </UserObject>
        <UserObject label="(n1 + n2) / 2" placeholders="1" name="Variable" id="VuJn-vsjXSe5jHGsOPbM-14">
          <mxCell style="text;html=1;strokeColor=none;fillColor=none;align=center;verticalAlign=middle;whiteSpace=wrap;overflow=hidden;" vertex="1" parent="1">
            <mxGeometry x="440" y="210" width="100" height="20" as="geometry" />
          </mxCell>
        </UserObject>
        <UserObject label="exibe a média" placeholders="1" name="Variable" id="VuJn-vsjXSe5jHGsOPbM-15">
          <mxCell style="text;html=1;strokeColor=none;fillColor=none;align=center;verticalAlign=middle;whiteSpace=wrap;overflow=hidden;" vertex="1" parent="1">
            <mxGeometry x="590" y="210" width="100" height="20" as="geometry" />
          </mxCell>
        </UserObject>
      </root>
    </mxGraphModel>
  </diagram>
</mxfile>
